Coordinates
version=1
nRows=49
nColumns=12
inDegrees=yes

Units are S.I. units (second, meters, Newtons, ...)
Angles are in degrees

endheader
time	SC_y	SC_z	SC_x	AC_y	AC_z	AC_x	GH_y	GH_z	GH_yy	EL_x	PS_y
       0.0              -49.45          22.37          68.46          51.66         -13.78          8.063          120.2          76.08          108.2          108.1          149.3
   0.02385              -49.45          22.37          68.45          51.65         -13.78          8.062          120.2          76.08          108.2          108.1          149.2
    0.0477              -49.45          22.37          68.45          51.65         -13.78          8.061          120.2          76.08          108.2          108.1          149.2
   0.07155              -49.45          22.37          68.45          51.65         -13.78           8.06          120.2          76.08          108.2          108.1          149.2
    0.0954              -49.46          22.37          68.45          51.65         -13.78          8.059          120.1          76.07          108.2          108.1          149.2
    0.1193              -49.46          22.38          68.45          51.65         -13.78          8.057          120.1          76.07          108.2          108.1          149.2
    0.1431              -49.46          22.38          68.45          51.64         -13.78          8.056          120.1          76.07          108.2          108.1          149.1
     0.167              -49.46          22.38          68.44          51.64         -13.78          8.055          120.1          76.06          108.2          108.1          149.1
    0.1908              -49.46          22.39          68.44          51.64         -13.78          8.053          120.1          76.06          108.2          108.1          149.1
    0.2147              -49.47          22.39          68.44          51.64         -13.78          8.052          120.0          76.05          108.2          108.1          149.0
    0.2385              -49.47          22.39          68.44          51.63         -13.78           8.05          120.0          76.05          108.2          108.1          149.0
    0.2624              -49.47           22.4          68.43          51.63         -13.78          8.048          120.0          76.04          108.2          108.2          149.0
    0.2862              -49.47           22.4          68.43          51.63         -13.78          8.046          120.0          76.04          108.2          108.2          148.9
    0.3101              -49.48          22.41          68.43          51.62         -13.78          8.044          119.9          76.03          108.2          108.2          148.9
    0.3339              -49.48          22.41          68.42          51.62         -13.78          8.042          119.9          76.02          108.2          108.2          148.8
    0.3578              -49.49          22.42          68.42          51.61         -13.78          8.039          119.9          76.02          108.2          108.2          148.8
    0.3816              -49.49          22.42          68.42          51.61         -13.78          8.037          119.8          76.01          108.2          108.2          148.7
    0.4055              -49.49          22.43          68.41           51.6         -13.78          8.034          119.8           76.0          108.2          108.2          148.7
    0.4293               -49.5          22.44          68.41           51.6         -13.78          8.031          119.8          75.99          108.2          108.2          148.6
    0.4532              -49.51          22.45           68.4          51.59         -13.77          8.027          119.7          75.98          108.2          108.2          148.5
     0.477              -49.51          22.46           68.4          51.58         -13.77          8.023          119.7          75.97          108.2          108.2          148.5
    0.5009              -49.52          22.47          68.39          51.57         -13.77          8.019          119.6          75.96          108.2          108.2          148.4
    0.5247              -49.53          22.48          68.38          51.57         -13.77          8.015          119.6          75.95          108.2          108.3          148.3
    0.5486              -49.53          22.49          68.37          51.56         -13.77          8.009          119.5          75.93          108.2          108.3          148.2
    0.5724              -49.54           22.5          68.37          51.55         -13.77          8.004          119.4          75.91          108.2          108.3          148.0
    0.5963              -49.55          22.52          68.36          51.53         -13.77          7.997          119.3           75.9          108.2          108.3          147.9
    0.6201              -49.57          22.53          68.34          51.52         -13.77           7.99          119.2          75.88          108.2          108.3          147.8
     0.644              -49.58          22.55          68.33          51.51         -13.76          7.982          119.1          75.85          108.2          108.3          147.6
    0.6678              -49.59          22.57          68.32          51.49         -13.76          7.973          119.0          75.83          108.2          108.4          147.4
    0.6917              -49.61           22.6           68.3          51.47         -13.76          7.963          118.9           75.8          108.2          108.4          147.2
    0.7155              -49.63          22.62          68.28          51.45         -13.76          7.951          118.7          75.76          108.2          108.4          146.9
    0.7394              -49.65          22.65          68.26          51.42         -13.75          7.937          118.5          75.72          108.2          108.5          146.7
    0.7632              -49.68          22.69          68.24          51.39         -13.75          7.922          118.3          75.68          108.2          108.5          146.3
    0.7871              -49.71          22.73          68.21          51.36         -13.75          7.903          118.1          75.63          108.2          108.6          146.0
    0.8109              -49.74          22.78          68.18          51.32         -13.74          7.882          117.8          75.57          108.2          108.6          145.5
    0.8348              -49.78          22.84          68.14          51.27         -13.73          7.857          117.5          75.49          108.2          108.7          145.0
    0.8586              -49.83          22.91           68.1          51.22         -13.73          7.827          117.1          75.41          108.2          108.8          144.4
    0.8825              -49.89          22.99          68.04          51.15         -13.72          7.792          116.6          75.31          108.2          108.9          143.6
    0.9063              -49.96          23.09          67.97          51.07         -13.71          7.749          116.0          75.18          108.2          109.0          142.7
    0.9302              -50.04          23.21          67.89          50.97          -13.7          7.696          115.3          75.03          108.2          109.2          141.6
     0.954              -50.15          23.36          67.79          50.85         -13.68          7.631          114.4          74.85          108.2          109.4          140.3
    0.9779              -50.28          23.55          67.67           50.7         -13.66           7.55          113.3          74.61          108.2          109.6          138.6
     1.002              -50.44          23.78          67.51          50.51         -13.64          7.447          112.0          74.32          108.2          109.9          136.5
     1.026              -50.65          24.08          67.31          50.27         -13.61          7.317          110.2          73.95          108.3          110.3          133.8
     1.049              -50.92          24.46          67.06          49.96         -13.57          7.151          108.0          73.47          108.3          110.8          130.3
     1.073              -51.27          24.95          66.73          49.56         -13.52          6.937          105.2          72.86          108.3          111.4          125.9
     1.097              -51.71          25.58          66.31          49.05         -13.46          6.665          101.5          72.08          108.3          112.2          120.2
     1.121              -52.26          26.37          65.78          48.41         -13.38          6.322          96.97          71.09          108.4          113.3          113.1
     1.145              -52.94          27.33          65.14          47.64         -13.28          5.904          91.39           69.9          108.5          114.5          104.4
